REM DIRINDEX 1\2,1\3,1\4,1\5,1\6
REM DIRNAME folder01,folder02,folder03,folder04,folder05,folder06
TITLE ""
FILE "CD1-66.mp3" MP3
  TRACK 01 AUDIO
    TITLE "6:cjc091_1328"
    INDEX 01 00:00:00
  TRACK 02 AUDIO
    TITLE "0:"
    INDEX 01 00:02:08
  TRACK 03 AUDIO
    TITLE "2:cjc091_1329"
    INDEX 01 00:03:23
  TRACK 04 AUDIO
    TITLE "0:"
    INDEX 01 00:04:27
  TRACK 05 AUDIO
    TITLE "3:cjc091_1330"
    INDEX 01 00:04:44
  TRACK 06 AUDIO
    TITLE "0:"
    INDEX 01 00:06:16
  TRACK 07 AUDIO
    TITLE "4:cjc091_1331"
    INDEX 01 00:06:41
  TRACK 08 AUDIO
    TITLE "0:"
    INDEX 01 00:08:62
  TRACK 09 AUDIO
    TITLE "2:cjc091_1332"
    INDEX 01 00:09:71
  TRACK 10 AUDIO
    TITLE "0:"
    INDEX 01 00:11:27
  TRACK 11 AUDIO
    TITLE "3:cjc091_1333"
    INDEX 01 00:11:46
  TRACK 12 AUDIO
    TITLE "0:"
    INDEX 01 00:13:22
  TRACK 13 AUDIO
    TITLE "4:cjc091_1334"
    INDEX 01 00:13:41
  TRACK 14 AUDIO
    TITLE "0:"
    INDEX 01 00:16:32
  TRACK 15 AUDIO
    TITLE "2:cjc091_1335"
    INDEX 01 00:17:49
  TRACK 16 AUDIO
    TITLE "0:"
    INDEX 01 00:18:60
  TRACK 17 AUDIO
    TITLE "3:cjc091_1336"
    INDEX 01 00:18:62
  TRACK 18 AUDIO
    TITLE "0:"
    INDEX 01 00:19:67
  TRACK 19 AUDIO
    TITLE "4:cjc091_1337"
    INDEX 01 00:20:08
  TRACK 20 AUDIO
    TITLE "0:"
    INDEX 01 00:24:08
  TRACK 21 AUDIO
    TITLE "2:cjc091_1338"
    INDEX 01 00:25:15
  TRACK 22 AUDIO
    TITLE "0:"
    INDEX 01 00:27:26
  TRACK 23 AUDIO
    TITLE "3:cjc091_1339"
    INDEX 01 00:27:41
  TRACK 24 AUDIO
    TITLE "0:"
    INDEX 01 00:29:50
  TRACK 25 AUDIO
    TITLE "4:cjc091_1340"
    INDEX 01 00:29:72
  TRACK 26 AUDIO
    TITLE "0:"
    INDEX 01 00:34:32
  TRACK 27 AUDIO
    TITLE "2:cjc091_1341"
    INDEX 01 00:35:41
  TRACK 28 AUDIO
    TITLE "0:"
    INDEX 01 00:37:01
  TRACK 29 AUDIO
    TITLE "3:cjc091_1342"
    INDEX 01 00:37:08
  TRACK 30 AUDIO
    TITLE "0:"
    INDEX 01 00:38:18
  TRACK 31 AUDIO
    TITLE "4:cjc091_1343"
    INDEX 01 00:38:37
  TRACK 32 AUDIO
    TITLE "0:"
    INDEX 01 00:42:41
  TRACK 33 AUDIO
    TITLE "2:cjc091_1344"
    INDEX 01 00:43:52
  TRACK 34 AUDIO
    TITLE "0:"
    INDEX 01 00:44:65
  TRACK 35 AUDIO
    TITLE "3:cjc091_1345"
    INDEX 01 00:45:02
  TRACK 36 AUDIO
    TITLE "0:"
    INDEX 01 00:46:62
  TRACK 37 AUDIO
    TITLE "4:cjc091_1346"
    INDEX 01 00:47:01
  TRACK 38 AUDIO
    TITLE "0:"
    INDEX 01 00:49:27
  TRACK 39 AUDIO
    TITLE "2:cjc091_1347"
    INDEX 01 00:50:33
  TRACK 40 AUDIO
    TITLE "0:"
    INDEX 01 00:51:48
  TRACK 41 AUDIO
    TITLE "3:cjc091_1348"
    INDEX 01 00:51:73
  TRACK 42 AUDIO
    TITLE "0:"
    INDEX 01 00:53:41
  TRACK 43 AUDIO
    TITLE "4:cjc091_1349"
    INDEX 01 00:53:62
  TRACK 44 AUDIO
    TITLE "0:"
    INDEX 01 00:56:10
  TRACK 45 AUDIO
    TITLE "2:cjc091_1350"
    INDEX 01 00:57:23
  TRACK 46 AUDIO
    TITLE "0:"
    INDEX 01 00:58:30
  TRACK 47 AUDIO
    TITLE "3:cjc091_1351"
    INDEX 01 00:58:48
  TRACK 48 AUDIO
    TITLE "0:"
    INDEX 01 01:00:33
  TRACK 49 AUDIO
    TITLE "4:cjc091_1352"
    INDEX 01 01:00:53
  TRACK 50 AUDIO
    TITLE "0:"
    INDEX 01 01:03:22
  TRACK 51 AUDIO
    TITLE "2:cjc091_1353"
    INDEX 01 01:04:35
  TRACK 52 AUDIO
    TITLE "0:"
    INDEX 01 01:05:69
  TRACK 53 AUDIO
    TITLE "3:cjc091_1354"
    INDEX 01 01:06:10
  TRACK 54 AUDIO
    TITLE "0:"
    INDEX 01 01:08:23
  TRACK 55 AUDIO
    TITLE "4:cjc091_1355"
    INDEX 01 01:08:40
  TRACK 56 AUDIO
    TITLE "0:"
    INDEX 01 01:12:42
  TRACK 57 AUDIO
    TITLE "2:cjc091_1356"
    INDEX 01 01:13:51
  TRACK 58 AUDIO
    TITLE "0:"
    INDEX 01 01:15:03
  TRACK 59 AUDIO
    TITLE "3:cjc091_1357"
    INDEX 01 01:15:17
  TRACK 60 AUDIO
    TITLE "0:"
    INDEX 01 01:16:12
  TRACK 61 AUDIO
    TITLE "4:cjc091_1358"
    INDEX 01 01:16:34
  TRACK 62 AUDIO
    TITLE "0:"
    INDEX 01 01:20:32
  TRACK 63 AUDIO
    TITLE "2:cjc091_1359"
    INDEX 01 01:21:49
  TRACK 64 AUDIO
    TITLE "0:"
    INDEX 01 01:22:66
  TRACK 65 AUDIO
    TITLE "3:cjc091_1360"
    INDEX 01 01:23:07
  TRACK 66 AUDIO
    TITLE "0:"
    INDEX 01 01:24:65
  TRACK 67 AUDIO
    TITLE "4:cjc091_1361"
    INDEX 01 01:25:15
  TRACK 68 AUDIO
    TITLE "0:"
    INDEX 01 01:27:67
  TRACK 69 AUDIO
    TITLE "2:cjc091_1362"
    INDEX 01 01:29:01
  TRACK 70 AUDIO
    TITLE "0:"
    INDEX 01 01:30:46
  TRACK 71 AUDIO
    TITLE "3:cjc091_1363"
    INDEX 01 01:30:71
  TRACK 72 AUDIO
    TITLE "0:"
    INDEX 01 01:33:01
  TRACK 73 AUDIO
    TITLE "4:cjc091_1364"
    INDEX 01 01:33:21
  TRACK 74 AUDIO
    TITLE "0:"
    INDEX 01 01:36:23
  TRACK 75 AUDIO
    TITLE "2:cjc091_1365"
    INDEX 01 01:37:36
  TRACK 76 AUDIO
    TITLE "0:"
    INDEX 01 01:38:69
  TRACK 77 AUDIO
    TITLE "3:cjc091_1366"
    INDEX 01 01:39:10
  TRACK 78 AUDIO
    TITLE "0:"
    INDEX 01 01:41:18
  TRACK 79 AUDIO
    TITLE "4:cjc091_1367"
    INDEX 01 01:41:38
  TRACK 80 AUDIO
    TITLE "0:"
    INDEX 01 01:46:61
  TRACK 81 AUDIO
    TITLE "2:cjc091_1368"
    INDEX 01 01:47:72
  TRACK 82 AUDIO
    TITLE "0:"
    INDEX 01 01:49:47
  TRACK 83 AUDIO
    TITLE "3:cjc091_1369"
    INDEX 01 01:49:61
  TRACK 84 AUDIO
    TITLE "0:"
    INDEX 01 01:51:36
  TRACK 85 AUDIO
    TITLE "4:cjc091_1370"
    INDEX 01 01:51:54
  TRACK 86 AUDIO
    TITLE "0:"
    INDEX 01 01:55:42
  TRACK 87 AUDIO
    TITLE "2:cjc091_1371"
    INDEX 01 01:56:51
  TRACK 88 AUDIO
    TITLE "0:"
    INDEX 01 01:58:17
  TRACK 89 AUDIO
    TITLE "3:cjc091_1372"
    INDEX 01 01:58:30
  TRACK 90 AUDIO
    TITLE "0:"
    INDEX 01 01:59:71
  TRACK 91 AUDIO
    TITLE "4:cjc091_1373"
    INDEX 01 02:00:14
  TRACK 92 AUDIO
    TITLE "0:"
    INDEX 01 02:05:50
